HIERARCHY
ROOT Hips
{
	OFFSET 0.000000 0.000000 0.000000
	CHANNELS 6 Xposition Yposition Zposition Xrotation Yrotation Zrotation
	JOINT LeftUpLeg_virtual
	{
		OFFSET 0.000000 0.000000 0.000000
		CHANNELS 3 Xrotation Yrotation Zrotation
		JOINT LeftUpLeg
		{
			OFFSET 15.427100 -6.655098 0.678600
			CHANNELS 3 Xrotation Yrotation Zrotation
			JOINT LeftLeg
			{
				OFFSET 4.081073 -39.591068 13.024000
				CHANNELS 3 Xrotation Yrotation Zrotation
				JOINT LeftFoot
				{
					OFFSET -4.081074 -37.707932 -15.979700
					CHANNELS 3 Xrotation Yrotation Zrotation
					JOINT LeftToeBase
					{
						OFFSET 5.346399 -15.068900 20.645000
						CHANNELS 3 Xrotation Yrotation Zrotation
						JOINT LeftToe_End
						{
							OFFSET 2.754700 0.931300 11.300900
							CHANNELS 3 Xrotation Yrotation Zrotation
							End Site
							{
								OFFSET 0 0 0
							}
						}
					}
				}
			}
		}
	}
	JOINT RightUpLeg_virtual
	{
		OFFSET 0.000000 0.000000 0.000000
		CHANNELS 3 Xrotation Yrotation Zrotation
		JOINT RightUpLeg
		{
			OFFSET -15.569500 -6.655098 0.678600
			CHANNELS 3 Xrotation Yrotation Zrotation
			JOINT RightLeg
			{
				OFFSET -4.081825 -39.591045 13.023800
				CHANNELS 3 Xrotation Yrotation Zrotation
				JOINT RightFoot
				{
					OFFSET 4.081824 -37.707954 -15.979600
					CHANNELS 3 Xrotation Yrotation Zrotation
					JOINT RightToeBase
					{
						OFFSET -5.346400 -15.068900 20.645000
						CHANNELS 3 Xrotation Yrotation Zrotation
						JOINT RightToe_End
						{
							OFFSET -2.754700 0.931300 11.300900
							CHANNELS 3 Xrotation Yrotation Zrotation
							End Site
							{
								OFFSET 0 0 0
							}
						}
					}
				}
			}
		}
	}
	JOINT Spine_virtual
	{
		OFFSET 0.000000 0.000000 0.000000
		CHANNELS 3 Xrotation Yrotation Zrotation
		JOINT Spine
		{
			OFFSET -0.279200 12.230698 -2.892100
			CHANNELS 3 Xrotation Yrotation Zrotation
			JOINT Spine1
			{
				OFFSET -0.232667 10.192268 -1.242267
				CHANNELS 3 Xrotation Yrotation Zrotation
				JOINT Spine1_split
				{
					OFFSET -0.232667 10.192268 -1.242267
					CHANNELS 3 Xrotation Yrotation Zrotation
					JOINT Spine2
					{
						OFFSET -0.232667 10.192268 -1.242267
						CHANNELS 3 Xrotation Yrotation Zrotation
						JOINT Neck_virtual
						{
							OFFSET 0.000000 0.000000 0.000000
							CHANNELS 3 Xrotation Yrotation Zrotation
							JOINT Neck
							{
								OFFSET -0.418800 17.814194 8.416900
								CHANNELS 3 Xrotation Yrotation Zrotation
								JOINT Head
								{
									OFFSET 0.000000 7.031097 3.806800
									CHANNELS 3 Xrotation Yrotation Zrotation
									JOINT HeadTop_End
									{
										OFFSET 0.000000 24.646606 12.978600
										CHANNELS 3 Xrotation Yrotation Zrotation
										End Site
										{
											OFFSET 0 0 0
										}
									}
								}
							}
						}
						JOINT LeftShoulder_virtual
						{
							OFFSET 0.000000 0.000000 0.000000
							CHANNELS 3 Xrotation Yrotation Zrotation
							JOINT LeftShoulder
							{
								OFFSET 8.476499 7.247704 -3.868750
								CHANNELS 3 Xrotation Yrotation Zrotation
								JOINT LeftShoulder_split
								{
									OFFSET 8.476499 7.247704 -3.868750
									CHANNELS 3 Xrotation Yrotation Zrotation
									JOINT LeftArm
									{
										OFFSET 9.308998 -2.777710 0.208600
										CHANNELS 3 Xrotation Yrotation Zrotation
										JOINT LeftForeArm
										{
											OFFSET 29.972298 0.000000 0.000000
											CHANNELS 3 Xrotation Yrotation Zrotation
											JOINT LeftHand
											{
												OFFSET 26.026505 0.000000 0.000000
												CHANNELS 3 Xrotation Yrotation Zrotation
												End Site
												{
													OFFSET 0 0 0
												}
											}
										}
									}
								}
							}
						}
						JOINT RightShoulder_virtual
						{
							OFFSET 0.000000 0.000000 0.000000
							CHANNELS 3 Xrotation Yrotation Zrotation
							JOINT RightShoulder
							{
								OFFSET -7.570500 7.247704 -3.868750
								CHANNELS 3 Xrotation Yrotation Zrotation
								JOINT RightShoulder_split
								{
									OFFSET -7.570500 7.247704 -3.868750
									CHANNELS 3 Xrotation Yrotation Zrotation
									JOINT RightArm
									{
										OFFSET -9.308998 -2.777710 0.208500
										CHANNELS 3 Xrotation Yrotation Zrotation
										JOINT RightForeArm
										{
											OFFSET -29.972300 0.000000 0.000000
											CHANNELS 3 Xrotation Yrotation Zrotation
											JOINT RightHand
											{
												OFFSET -26.026505 0.000000 0.000000
												CHANNELS 3 Xrotation Yrotation Zrotation
												End Site
												{
													OFFSET 0 0 0
												}
											}
										}
									}
								}
							}
						}
					}
				}
			}
		}
	}
}
MOTION
Frames: 7
Frame Time: 0.03333333
0.972867 92.746925 -0.946533 0.000000 0.000000 0.000000 3.282830 -30.802937 2.242864 -12.543945 15.426377 13.403572 16.366725 13.053495 -3.745753 -5.445194 -4.424004 -7.003356 2.753767 0.283688 -0.473637 0.000000 0.000000 0.000000 3.864250 -30.108464 2.175225 -3.745389 -1.423856 -10.721826 8.882792 9.740205 4.499830 -8.593543 -1.153832 4.306497 -0.753165 0.065846 0.390873 0.000000 0.000000 0.000000 3.269406 -29.463114 1.098023 7.430237 0.071791 -0.982703 1.358286 -0.783233 2.357237 0.471964 0.162064 0.647033 0.000000 0.000000 0.000000 1.054253 -0.394632 2.510035 -4.571512 17.693578 -7.141393 -5.896297 15.393797 0.290177 0.000000 0.000000 0.000000 1.264030 -0.623225 2.626576 0.932529 -10.337877 0.310301 1.403530 -0.109856 0.305313 -59.831030 1.376185 -39.457634 9.359945 -59.990187 11.770761 0.000000 0.000000 0.000000 0.804232 -0.465175 2.685649 4.831626 6.078343 7.203133 -0.783192 -0.228964 -1.481069 0.119622 0.491700 63.356404 12.333746 23.482161 -3.907298 0.000000 0.000000 0.000000 
0.959817 92.763802 -0.881630 0.000000 0.000000 0.000000 3.409287 -30.776877 2.267409 -12.601249 15.378265 13.425693 16.322677 13.038752 -3.692318 -5.461573 -4.401941 -7.042165 2.712629 0.288071 -0.481127 0.000000 0.000000 0.000000 3.986455 -30.071544 2.187338 -3.780159 -1.355184 -10.695194 8.957802 9.792209 4.475039 -8.560628 -1.114627 4.341637 -0.760556 0.054148 0.387789 0.000000 0.000000 0.000000 3.410008 -29.385834 1.119318 7.393438 0.080625 -1.001711 1.337436 -0.799596 2.363387 0.547556 0.124784 0.717389 0.000000 0.000000 0.000000 1.044771 -0.400236 2.530184 -4.515153 17.868796 -7.214935 -5.867571 15.423819 0.326887 0.000000 0.000000 0.000000 1.236935 -0.625811 2.641426 0.915076 -10.229334 0.186710 1.505728 -0.191619 0.373652 -59.765924 1.444480 -39.385654 9.521013 -60.026776 11.848974 0.000000 0.000000 0.000000 0.794769 -0.468828 2.699109 4.777565 6.131917 7.349375 -0.964167 -0.286120 -1.446422 0.193748 0.546670 63.323196 12.325559 23.249841 -3.897836 0.000000 0.000000 0.000000 
0.926477 92.762360 -0.846092 0.000000 0.000000 0.000000 3.609402 -30.694819 2.307701 -12.744027 15.241951 13.461692 16.302605 13.022991 -3.652557 -5.493603 -4.358286 -7.126189 2.676647 0.288987 -0.468223 0.000000 0.000000 0.000000 4.172114 -30.014973 2.216661 -3.876607 -1.293990 -10.648116 9.053393 9.841573 4.458760 -8.606607 -1.090729 4.348948 -0.706138 0.044551 0.385848 0.000000 0.000000 0.000000 3.652653 -29.315073 1.170232 7.362433 0.103576 -1.018178 1.302688 -0.791808 2.366251 0.582734 0.058715 0.751130 0.000000 0.000000 0.000000 1.036484 -0.378462 2.538676 -4.408124 18.213994 -7.333568 -5.925276 15.626800 0.444406 0.000000 0.000000 0.000000 1.213608 -0.602130 2.646213 0.892348 -10.040396 0.062419 1.590860 -0.199764 0.463106 -59.745372 1.503068 -39.325415 9.611671 -60.170613 11.856655 0.000000 0.000000 0.000000 0.779935 -0.450156 2.700475 4.732337 6.203210 7.533084 -1.068336 -0.351326 -1.491826 0.278177 0.593442 63.285159 12.290799 23.017592 -3.901028 0.000000 0.000000 0.000000 
0.872497 92.740891 -0.830654 0.000000 0.000000 0.000000 3.860954 -30.523699 2.360314 -12.963474 15.039274 13.505506 16.308190 13.014897 -3.637654 -5.540391 -4.296989 -7.233529 2.664778 0.286259 -0.439719 0.000000 0.000000 0.000000 4.402023 -29.929462 2.263699 -4.034761 -1.253852 -10.598933 9.144129 9.890330 4.452537 -8.706784 -1.078513 4.354366 -0.610534 0.039735 0.381735 0.000000 0.000000 0.000000 3.965995 -29.241160 1.250495 7.331165 0.136359 -1.027507 1.254320 -0.760280 2.364379 0.525121 -0.020109 0.735731 0.000000 0.000000 0.000000 1.027047 -0.334949 2.538965 -4.237783 18.734927 -7.532637 -6.083127 16.016712 0.608219 0.000000 0.000000 0.000000 1.196614 -0.558140 2.641572 0.871994 -9.798337 -0.039057 1.645620 -0.092693 0.578162 -59.786599 1.546912 -39.309590 9.608769 -60.328595 11.776225 0.000000 0.000000 0.000000 0.760923 -0.412967 2.691768 4.695865 6.299291 7.716876 -1.079059 -0.386849 -1.614632 0.361672 0.637668 63.271471 12.235401 22.777583 -3.912504 0.000000 0.000000 0.000000 
0.801738 92.703873 -0.827621 0.000000 0.000000 0.000000 4.138544 -30.253995 2.422615 -13.242238 14.778998 13.551917 16.341357 13.023894 -3.656722 -5.596779 -4.220926 -7.345773 2.675088 0.281965 -0.393557 0.000000 0.000000 0.000000 4.664267 -29.776876 2.329375 -4.227817 -1.247623 -10.561176 9.219776 9.940895 4.456238 -8.841055 -1.073219 4.375539 -0.511926 0.039483 0.377885 0.000000 0.000000 0.000000 4.326506 -29.120010 1.355416 7.289069 0.172612 -1.031921 1.202277 -0.710785 2.356547 0.441471 -0.133912 0.733722 0.000000 0.000000 0.000000 1.015602 -0.277089 2.532271 -3.985222 19.439118 -7.857378 -6.346646 16.610351 0.784993 0.000000 0.000000 0.000000 1.187615 -0.500528 2.631671 0.861647 -9.532535 -0.104567 1.674676 0.089752 0.691947 -59.907336 1.610074 -39.364081 9.511861 -60.430474 11.606173 0.000000 0.000000 0.000000 0.744144 -0.363351 2.676313 4.666999 6.420056 7.860513 -1.028803 -0.368718 -1.770147 0.451065 0.660810 63.298505 12.165609 22.555670 -3.928021 0.000000 0.000000 0.000000 
0.707264 92.655014 -0.840466 0.000000 0.000000 0.000000 4.431126 -29.881319 2.500061 -13.544129 14.477167 13.592116 16.390347 13.046072 -3.714232 -5.651975 -4.142978 -7.452010 2.690449 0.275514 -0.327068 0.000000 0.000000 0.000000 4.943455 -29.511898 2.410786 -4.431708 -1.293037 -10.534639 9.279611 9.985171 4.465293 -8.999146 -1.080161 4.401426 -0.416711 0.043646 0.378508 0.000000 0.000000 0.000000 4.707776 -28.908308 1.478377 7.224571 0.209188 -1.035675 1.154060 -0.651671 2.341192 0.370109 -0.295660 0.762722 0.000000 0.000000 0.000000 1.002339 -0.211655 2.519968 -3.629303 20.330002 -8.353914 -6.715162 17.434188 0.936887 0.000000 0.000000 0.000000 1.191181 -0.436577 2.619719 0.865205 -9.274688 -0.119923 1.696234 0.236259 0.755785 -60.148791 1.693204 -39.525844 9.348093 -60.462754 11.371469 0.000000 0.000000 0.000000 0.734904 -0.307546 2.656328 4.644755 6.563748 7.930926 -0.927908 -0.321138 -1.914208 0.534388 0.615267 63.377073 12.091130 22.376487 -3.946517 0.000000 0.000000 0.000000 
0.589173 92.597237 -0.857426 0.000000 0.000000 0.000000 4.724613 -29.404545 2.593618 -13.849266 14.133719 13.629366 16.443931 13.071165 -3.807475 -5.700864 -4.078793 -7.556581 2.703454 0.266584 -0.246828 0.000000 0.000000 0.000000 5.222473 -29.126737 2.500493 -4.639125 -1.416209 -10.508453 9.349343 9.999041 4.471079 -9.179730 -1.114878 4.402927 -0.306842 0.050261 0.389820 0.000000 0.000000 0.000000 5.094344 -28.578217 1.609254 7.135836 0.245579 -1.045128 1.120567 -0.591352 2.314646 0.348482 -0.443764 0.804873 0.000000 0.000000 0.000000 0.997035 -0.144837 2.502763 -3.150698 21.405106 -9.046859 -7.182864 18.480419 1.047838 0.000000 0.000000 0.000000 1.206086 -0.370976 2.605446 0.882355 -9.049068 -0.097161 1.722736 0.298089 0.797518 -60.527470 1.783965 -39.806845 9.182966 -60.466353 11.129097 0.000000 0.000000 0.000000 0.729152 -0.250185 2.631404 4.629860 6.723306 7.923287 -0.789778 -0.282058 -2.010803 0.618506 0.454336 63.493240 12.020984 22.276148 -3.962820 0.000000 0.000000 0.000000 
